PathFileType	4	(X/Y/Z)	Kaydara	
DataRate	CameraRate	NumFrames	NumMarkers	Units	OrigDataRate	OrigDataStartFrame	OrigNumFrames	
60.00	60.00	4	74	mm	60.00	441	98	
Frame#	Time	Y_rasi			Y_rpsi			Y_lpsi			Y_fneck			Y_bneck			Y_fhead			Y_rhead			Y_rshld			Y_relbtop			Y_relbext			Y_relblow			Y_rwrext			Y_rwrtop			Y_rwrlow			Y_lshld			Y_lelbext			Y_lelblow			Y_lelbtop			Y_lwrext			Y_lwrtop			Y_lwrlow			Y_rtopleg			Y_ltopleg			Y_rkneefr			Y_rkneebk			Y_rkneeis			Y_lkneefr			Y_lknssbk			Y_lkneeis			Y_rankfr			Y_rankis			Y_rankbk			Y_lankfr			Y_lankbk			Y_lankis			Y_lhead			Y_lasi			D_rpsi			D_lpsi			D_fneck			D_bneck			D_fhead			D_rhead			D_lhead			D_rshld			D_relbtop			D_relbext			D_relblow			D_rwrext			D_rwrtop			D_rwrlow			D_lshld			D_lelbext			D_lelblow			D_lelbtop			D_lwrext			D_lwrtop			D_lwrlow			D_rtopleg			D_ltopleg			D_rkneefr			D_rkneebk			D_rkneeis			D_lkneefr			D_lknssbk			D_lkneeis			D_rankfr			D_rankis			D_rankbk			D_lankfr			D_lankbk			D_lankis			D_lasi			D_rasi			
		X1	Y1	Z1	X2	Y2	Z2	X3	Y3	Z3	X4	Y4	Z4	X5	Y5	Z5	X6	Y6	Z6	X7	Y7	Z7	X8	Y8	Z8	X9	Y9	Z9	X10	Y10	Z10	X11	Y11	Z11	X12	Y12	Z12	X13	Y13	Z13	X14	Y14	Z14	X15	Y15	Z15	X16	Y16	Z16	X17	Y17	Z17	X18	Y18	Z18	X19	Y19	Z19	X20	Y20	Z20	X21	Y21	Z21	X22	Y22	Z22	X23	Y23	Z23	X24	Y24	Z24	X25	Y25	Z25	X26	Y26	Z26	X27	Y27	Z27	X28	Y28	Z28	X29	Y29	Z29	X30	Y30	Z30	X31	Y31	Z31	X32	Y32	Z32	X33	Y33	Z33	X34	Y34	Z34	X35	Y35	Z35	X36	Y36	Z36	X37	Y37	Z37	X38	Y38	Z38	X39	Y39	Z39	X40	Y40	Z40	X41	Y41	Z41	X42	Y42	Z42	X43	Y43	Z43	X44	Y44	Z44	X45	Y45	Z45	X46	Y46	Z46	X47	Y47	Z47	X48	Y48	Z48	X49	Y49	Z49	X50	Y50	Z50	X51	Y51	Z51	X52	Y52	Z52	X53	Y53	Z53	X54	Y54	Z54	X55	Y55	Z55	X56	Y56	Z56	X57	Y57	Z57	X58	Y58	Z58	X59	Y59	Z59	X60	Y60	Z60	X61	Y61	Z61	X62	Y62	Z62	X63	Y63	Z63	X64	Y64	Z64	X65	Y65	Z65	X66	Y66	Z66	X67	Y67	Z67	X68	Y68	Z68	X69	Y69	Z69	X70	Y70	Z70	X71	Y71	Z71	X72	Y72	Z72	X73	Y73	Z73	X74	Y74	Z74	

74	7.333	-546.16444	1085.55779	-126.94888	-534.82098	1072.45071	-306.53587	-311.51453	1063.77419	-228.71502	-460.09701	1438.18604	-143.94367	-371.97060	1483.30444	-219.34767	-510.57636	1643.18634	-92.61983	-461.21227	1576.46255	-251.26238	-592.49374	1425.38605	-274.82950	-629.30828	1110.53886	-312.79240	-634.85634	1128.21541	-369.19357	-567.23942	1107.97905	-368.72150	-668.04062	848.78624	-309.12365	-701.06644	864.65202	-287.14262	-684.79988	876.01227	-246.59994	-239.21032	1383.52448	-89.63298	-170.59378	1073.20648	-137.31534	-220.77589	1062.84225	-167.55791	-218.39411	1080.04395	-95.00566	-237.15296	823.73642	-74.33478	-233.39529	833.64189	-31.63746	-275.85974	851.00960	-25.90424	-607.96230	914.42963	-272.88040	-277.45098	905.82939	-122.66394	-628.99021	413.83099	-278.06215	-604.16550	457.12933	-352.66083	-533.97312	417.02286	-265.30178	-326.91658	474.85477	-117.19142	-261.35338	496.06888	-208.29153	-381.97021	471.07899	-196.49996	-629.39865	142.97043	-328.66787	-559.01325	133.27845	-339.68693	-599.30264	137.55310	-394.05956	-273.16299	132.28543	-170.65439	-256.90046	129.77226	-238.19815	-329.58694	127.41304	-208.32325	-353.73844	1571.41052	-141.95718	-397.20333	1073.22708	-73.89582	-933.34473	1179.19449	613.31799	-1080.13588	1194.17290	513.96301	-916.09283	1614.92432	472.00459	-1002.79953	1660.98053	550.65857	-886.23329	1802.78366	343.57952	-913.44337	1808.77304	520.88673	-1037.06726	1795.48126	432.01313	-808.55782	1573.79913	594.49265	-783.80753	1203.49876	570.55252	-725.38132	1213.95607	599.34795	-779.62761	1199.44923	655.91324	-715.64774	928.84354	518.05878	-703.99872	943.56758	480.62424	-744.75990	954.68422	457.28554	-1152.10617	1564.45267	423.71624	-1170.89943	1192.14096	359.80122	-1144.26140	1171.32874	429.76070	-1107.40280	1199.09935	357.91832	-1111.57738	946.85020	316.81829	-1088.64899	966.03119	282.69714	-1048.12294	967.13829	309.88920	-824.22783	1037.77344	601.72657	-1112.71576	1034.78996	399.91734	-823.94211	559.89826	485.54890	-830.85114	560.21629	598.37097	-934.14932	547.67166	526.53702	-1010.17479	472.29603	379.95987	-1098.04131	518.45619	435.62641	-1007.29065	500.80631	493.71639	-834.21104	192.06642	551.67801	-910.16640	186.70216	537.80853	-882.33543	183.78231	619.20971	-1057.82814	163.51093	414.60804	-1076.22856	154.17431	491.57372	-993.22701	165.24029	448.30719	-1001.09184	1194.54773	368.76957	-823.67516	1184.76692	474.56268 
75	7.350	-546.11240	1085.68764	-127.08069	-534.33880	1072.38228	-306.71827	-311.22738	1063.62984	-228.42117	-459.86706	1438.13171	-144.21317	-371.70345	1483.13339	-219.49879	-510.49301	1643.16422	-93.06854	-461.07479	1576.31805	-251.65480	-592.14050	1425.25040	-275.40384	-628.87463	1110.36171	-313.24820	-634.53327	1127.98531	-369.16073	-566.56643	1107.86743	-368.95981	-667.12219	848.31085	-310.64905	-700.62660	864.33937	-288.40620	-684.16466	875.25589	-247.98452	-239.14333	1383.51898	-89.51946	-170.23308	1073.34808	-137.33000	-220.30205	1063.01994	-167.68818	-217.88631	1079.83688	-95.06463	-234.97410	822.85011	-76.67314	-231.47602	832.41142	-33.80492	-273.73014	849.34227	-28.01020	-608.04276	914.53621	-272.79854	-277.41697	905.76836	-122.19189	-628.96755	413.79105	-277.81755	-604.11427	457.13482	-352.34314	-533.97034	416.97807	-264.95321	-326.88324	474.95300	-116.75094	-261.37531	496.08391	-207.93873	-381.89178	471.12019	-196.27621	-629.41231	142.95665	-328.57395	-559.23141	133.22684	-339.44485	-599.31240	137.59456	-393.97202	-273.21806	132.28518	-170.56213	-256.90290	129.77649	-238.17257	-329.61861	127.31690	-208.26096	-353.60512	1571.52298	-142.29114	-397.21783	1073.26523	-73.68900	-933.48755	1179.18312	612.91016	-1080.00893	1194.20769	513.22865	-916.03668	1615.09277	471.26606	-1002.83180	1660.99869	550.26493	-885.89775	1802.45819	342.84782	-913.14163	1808.67828	520.35954	-1036.77261	1795.55130	431.40335	-808.67752	1573.74756	594.46239	-784.04442	1203.66577	571.70620	-725.60417	1214.15611	600.61558	-779.98634	1199.46220	656.94130	-715.76706	929.42390	517.64412	-703.72032	944.44374	480.65922	-744.23767	955.87639	456.91746	-1152.01042	1564.39651	422.98321	-1170.82764	1191.98761	359.70764	-1143.86536	1171.26358	429.62296	-1107.33292	1198.98170	357.68700	-1111.52046	946.66573	316.88387	-1088.69293	965.84251	282.64725	-1048.15559	967.07497	309.54674	-824.35379	1037.32239	601.19896	-1112.38792	1034.68880	399.30134	-823.86780	559.86530	485.37514	-830.79857	560.20252	598.14472	-934.12445	547.64156	526.30623	-1009.95956	472.27203	379.65767	-1097.82867	518.45863	435.16026	-1007.30888	500.82520	493.54630	-834.25179	192.00741	551.56956	-910.22881	186.65836	537.77615	-882.38358	183.75753	619.17400	-1057.75391	163.51021	414.51454	-1076.25359	154.20921	491.48178	-993.18092	165.22230	448.29899	-1000.68810	1194.51439	368.08956	-823.55858	1184.76868	474.42547 
76	7.367	-546.11259	1085.78613	-127.13449	-533.88233	1072.30797	-306.83111	-310.91990	1063.47534	-228.10736	-459.65614	1438.11005	-144.44173	-371.47919	1483.09036	-219.67421	-510.39951	1643.13141	-93.50466	-460.97862	1576.15280	-252.08168	-591.86134	1425.05234	-275.92953	-628.22865	1110.07462	-313.95519	-633.73360	1127.62878	-369.92973	-566.00666	1107.79503	-369.27032	-666.29829	847.84897	-312.22692	-699.31870	863.65417	-290.13264	-683.63754	874.55063	-249.67838	-239.08428	1383.51532	-89.35441	-169.84655	1073.54599	-137.54221	-219.93549	1063.25134	-167.92408	-217.38293	1079.66042	-95.14608	-232.75761	822.07451	-79.36047	-229.20637	831.26450	-36.25874	-271.53753	847.73003	-30.24052	-607.76329	914.56314	-272.95856	-277.44406	905.69611	-121.67857	-628.92651	413.76019	-277.61784	-604.43016	457.03239	-351.78459	-533.99342	416.94080	-264.66726	-327.02255	474.83002	-116.50805	-261.37577	496.07914	-207.49115	-381.93153	471.14880	-196.01948	-629.39537	142.94653	-328.50231	-558.84407	133.29226	-339.57630	-599.03461	137.66556	-393.98659	-273.26420	132.25039	-170.53761	-256.90655	129.77885	-238.10520	-329.58157	127.38314	-208.24280	-353.46241	1571.65939	-142.62938	-397.21386	1073.29918	-73.66863	-933.54111	1179.12209	612.45842	-1079.83078	1194.21547	512.56187	-915.95818	1615.34760	470.50575	-1002.56432	1660.92758	549.60400	-885.62317	1802.18155	342.31812	-912.93457	1808.61877	519.71516	-1036.56273	1795.57800	430.85484	-808.92349	1573.74481	594.58851	-784.09218	1203.86269	572.83031	-725.63400	1214.28406	601.79272	-780.15999	1199.60709	658.00087	-715.94948	930.08377	517.27821	-703.40302	945.20493	480.60883	-743.47191	957.07413	456.39652	-1151.92955	1564.35349	422.34940	-1170.72853	1191.84219	359.58015	-1143.44360	1171.20895	429.36913	-1107.24098	1198.96080	357.42393	-1111.54335	946.64520	316.85181	-1088.66837	965.72350	282.52110	-1048.10509	966.90880	309.17294	-824.26849	1037.54494	601.24390	-1112.14317	1034.71214	398.70941	-823.84331	559.82563	485.21286	-830.68039	560.13680	597.78919	-934.13361	547.59541	526.12225	-1009.72542	472.24186	379.42551	-1097.66251	518.49518	434.76734	-1007.28592	500.91236	493.38337	-834.29764	191.97536	551.40453	-910.26230	186.59967	537.70134	-882.33307	183.72515	619.06628	-1057.61490	163.48217	414.40525	-1076.20804	154.21316	491.37310	-993.12645	165.21961	448.34377	-1000.30273	1194.41063	367.66342	-823.12187	1184.49753	474.01814 
77	7.383	-546.11973	1085.83939	-127.22261	-533.48518	1072.13692	-307.28685	-310.61682	1063.35594	-227.83981	-459.61723	1437.94785	-144.61498	-371.37329	1483.03101	-219.86332	-510.30693	1643.18756	-93.91068	-460.90824	1575.97549	-252.45178	-591.63528	1424.91913	-276.30884	-628.02162	1109.83131	-314.51492	-633.13469	1127.50389	-370.64026	-565.45788	1107.73125	-369.73209	-665.11147	847.41699	-314.03410	-699.06883	863.14957	-292.28769	-683.27530	873.86505	-251.31714	-239.04547	1383.58398	-89.17796	-169.53163	1073.83026	-137.71486	-219.57682	1063.51440	-168.24703	-217.01195	1079.45618	-95.48476	-230.53907	821.36047	-81.91670	-226.86903	830.20844	-38.94658	-269.57672	846.27586	-32.59410	-607.47269	914.53003	-273.17633	-277.39950	905.63690	-121.26084	-628.93166	413.72375	-277.47963	-604.07120	457.04815	-351.83727	-534.00600	416.88084	-264.40895	-327.19795	474.83822	-116.25242	-261.39084	496.08692	-207.16610	-381.94805	471.18786	-195.83618	-629.35577	142.91842	-328.44597	-559.22382	133.16733	-339.29413	-599.19250	137.48487	-393.87920	-273.25386	132.25124	-170.48746	-256.88787	129.78778	-238.04506	-329.63322	127.38309	-208.22638	-353.37139	1571.81641	-142.90488	-397.24792	1073.35510	-73.32257	-933.48480	1179.12971	612.02641	-1079.65340	1194.17305	511.97239	-915.76393	1615.47394	469.82018	-1002.68288	1660.89462	549.07642	-885.39124	1801.95114	341.71040	-912.63260	1808.58231	519.16283	-1036.36192	1795.59845	430.37151	-809.10645	1573.69705	594.69345	-784.15359	1204.02802	573.76667	-725.65613	1214.41925	602.83760	-780.36873	1199.68140	658.81714	-716.46233	930.60219	517.47681	-703.12973	946.05034	480.53467	-742.81242	958.34625	455.91320	-1151.81458	1564.24789	421.64608	-1170.75089	1191.73653	359.30790	-1143.13019	1171.15799	428.97587	-1107.17361	1198.87787	356.97891	-1111.07704	946.44615	316.59964	-1088.55095	965.55000	282.26900	-1048.10585	966.95473	308.22887	-824.17061	1037.52304	601.09985	-1111.83731	1034.72420	398.20469	-823.81569	559.79542	484.99092	-830.70137	560.07656	597.63680	-934.12964	547.55276	526.00822	-1009.40979	472.24781	379.15211	-1097.48184	518.53909	434.39369	-1007.20001	500.94082	493.15044	-834.27956	191.92839	551.19816	-910.27542	186.58121	537.54814	-882.27402	183.72877	618.89969	-1057.50824	163.48866	414.31610	-1076.22841	154.33134	491.22189	-993.05832	165.22356	448.36048	-1000.04295	1194.34196	367.25105	-822.95036	1184.45831	473.92864 
